<?xml version="1.0" encoding="utf-8"?>
<!-- Generator: Adobe Illustrator 24.0.3, SVG Export Plug-In . SVG Version: 6.00 Build 0)  -->
<svg version="1.1" id="Layer_1" xmlns="http://www.w3.org/2000/svg" xmlns:xlink="http://www.w3.org/1999/xlink" x="0px" y="0px"
	 viewBox="0 0 192 192" style="enable-background:new 0 0 192 192;" xml:space="preserve">
<style type="text/css">
	.st0{fill:#FFFFFF;}
	.st1{fill:#44168E;}
	.st2{fill:#7438C5;}
</style>
<g>
	<path class="st0" d="M104,173H16c-6.6,0-12-5.4-12-12V15C4,8.4,9.4,3,16,3h88c6.6,0,12,5.4,12,12v146C116,167.6,110.6,173,104,173z
		"/>
	<path class="st0" d="M176,189H88c-6.6,0-12-5.4-12-12V31c0-6.6,5.4-12,12-12h88c6.6,0,12,5.4,12,12v146
		C188,183.6,182.6,189,176,189z"/>
	<path class="st1" d="M140,76c-8.8,0-16,7.2-16,16v8c0,8.8,7.2,16,16,16c0.2,0,0.5,0,0.7,0l-8.2,16h9l12.5-24.2
		c0.1-0.2,0.2-0.3,0.3-0.5l0,0l0,0c1.1-2.2,1.8-4.6,1.8-7.3v-8C156,83.2,148.8,76,140,76z M148,100c0,4.4-3.6,8-8,8
		c-4.4,0-8-3.6-8-8v-8c0-4.4,3.6-8,8-8c4.4,0,8,3.6,8,8V100z"/>
	<path class="st1" d="M60,60c-8.8,0-16,7.2-16,16v8c0,8.8,7.2,16,16,16c0.2,0,0.5,0,0.7,0l-8.2,16h9L74,91.8
		c0.1-0.2,0.2-0.3,0.3-0.5l0,0l0,0c1.1-2.2,1.8-4.6,1.8-7.3v-8C76,67.2,68.8,60,60,60z M68,84c0,4.4-3.6,8-8,8c-4.4,0-8-3.6-8-8v-8
		c0-4.4,3.6-8,8-8c4.4,0,8,3.6,8,8V84z"/>
	<path class="st2" d="M180,16h-60v-4c0-6.6-5.4-12-12-12H12C5.4,0,0,5.4,0,12v152c0,6.6,5.4,12,12,12h60v4c0,6.6,5.4,12,12,12h96
		c6.6,0,12-5.4,12-12V28C192,21.4,186.6,16,180,16z M12,168c-2.2,0-4-1.8-4-4V12c0-2.2,1.8-4,4-4h96c2.2,0,4,1.8,4,4v152
		c0,2.2-1.8,4-4,4H12z M184,180c0,2.2-1.8,4-4,4H84c-2.2,0-4-1.8-4-4v-4h28c6.6,0,12-5.4,12-12V24h60c2.2,0,4,1.8,4,4V180z"/>
</g>
</svg>
