<?xml version="1.0" encoding="utf-8"?>
<!-- Generator: Adobe Illustrator 24.0.3, SVG Export Plug-In . SVG Version: 6.00 Build 0)  -->
<svg version="1.1" xmlns="http://www.w3.org/2000/svg" xmlns:xlink="http://www.w3.org/1999/xlink" x="0px" y="0px"
	 viewBox="0 0 192 192" style="enable-background:new 0 0 192 192;" xml:space="preserve">
<style type="text/css">
	.st0{fill:#FFFFFF;}
	.st1{fill:url(#SVGID_1_);}
	.st2{fill:url(#SVGID_2_);}
	.st3{fill:url(#SVGID_3_);}
</style>
<g id="Layer_1">
	<circle class="st0" cx="96" cy="96" r="92"/>
	<g>
		<linearGradient id="SVGID_1_" gradientUnits="userSpaceOnUse" x1="125.0718" y1="38" x2="138.9282" y2="30">
			<stop  offset="0" style="stop-color:#DC630F"/>
			<stop  offset="1" style="stop-color:#7438C5"/>
		</linearGradient>
		<path class="st1" d="M128,40.9c3.8,2.2,8.7,0.9,10.9-2.9s0.9-8.7-2.9-10.9s-8.7-0.9-10.9,2.9C122.9,33.8,124.2,38.7,128,40.9z"/>
		<linearGradient id="SVGID_2_" gradientUnits="userSpaceOnUse" x1="62.0707" y1="115.5891" x2="129.9293" y2="76.4109">
			<stop  offset="0" style="stop-color:#DC630F"/>
			<stop  offset="1" style="stop-color:#7438C5"/>
		</linearGradient>
		<path class="st2" d="M125.1,92h-17.8c-1.2-3.4-3.9-6.1-7.3-7.3V66.9c2.4-1.4,4-4,4-6.9c0-4.4-3.6-8-8-8s-8,3.6-8,8
			c0,3,1.6,5.5,4,6.9v17.8c-3.4,1.2-6.1,3.9-7.3,7.3H66.9c-1.4-2.4-4-4-6.9-4c-4.4,0-8,3.6-8,8s3.6,8,8,8c3,0,5.5-1.6,6.9-4h17.8
			c1.2,3.4,3.9,6.1,7.3,7.3v17.8c-2.4,1.4-4,4-4,6.9c0,4.4,3.6,8,8,8s8-3.6,8-8c0-3-1.6-5.5-4-6.9v-17.8c3.4-1.2,6.1-3.9,7.3-7.3
			h17.8c1.4,2.4,4,4,6.9,4c4.4,0,8-3.6,8-8s-3.6-8-8-8C129,88,126.5,89.6,125.1,92z"/>
		<linearGradient id="SVGID_3_" gradientUnits="userSpaceOnUse" x1="12.8477" y1="144.008" x2="179.1523" y2="47.992">
			<stop  offset="0" style="stop-color:#DC630F"/>
			<stop  offset="1" style="stop-color:#7438C5"/>
		</linearGradient>
		<path class="st3" d="M96,0C43,0,0,43,0,96s43,96,96,96s96-43,96-96S149,0,96,0z M179.9,69.4l-31,8.3c-2.4-6.8-6-13-10.6-18.3
			L161,36.7C169.5,46,176,57.1,179.9,69.4z M144,96c0,26.5-21.5,48-48,48c-26.5,0-48-21.5-48-48s21.5-48,48-48
			C122.5,48,144,69.5,144,96z M155.3,31l-22.7,22.7c-5.3-4.6-11.5-8.3-18.3-10.6c0,0,0,0,0,0l8.3-31C134.9,16,146,22.5,155.3,31z
			 M96,8c6.5,0,12.8,0.7,18.9,2l-8.3,31c-3.4-0.7-7-1-10.6-1s-7.2,0.4-10.6,1l-8.3-31C83.2,8.7,89.5,8,96,8z M69.4,12.1l8.3,31
			c0,0,0,0,0,0c-6.8,2.4-13,6-18.3,10.6L36.7,31C46,22.5,57.1,16,69.4,12.1z M31,36.7l22.7,22.7c0,0,0,0,0,0
			c-4.6,5.3-8.3,11.5-10.6,18.3l-31-8.3C16,57.1,22.5,46,31,36.7z M8,96c0-6.5,0.7-12.8,2-18.9l31,8.3c-0.7,3.4-1,7-1,10.6
			s0.4,7.2,1,10.6l-31,8.3C8.7,108.8,8,102.5,8,96z M12.1,122.6l31-8.3c2.4,6.8,6,13,10.6,18.3L31,155.3
			C22.5,146,16,134.9,12.1,122.6z M36.7,161l22.7-22.7c0,0,0,0,0,0c5.3,4.6,11.5,8.3,18.3,10.6c0,0,0,0,0,0l-8.3,31
			C57.1,176,46,169.5,36.7,161z M96,184c-6.5,0-12.8-0.7-18.9-2l8.3-31c3.4,0.7,7,1,10.6,1s7.2-0.4,10.6-1l8.3,31
			C108.8,183.3,102.5,184,96,184z M122.6,179.9l-8.3-31c0,0,0,0,0,0c6.8-2.4,13-6,18.3-10.6l22.7,22.7
			C146,169.5,134.9,176,122.6,179.9z M161,155.3l-22.7-22.7c4.6-5.3,8.3-11.5,10.6-18.3l31,8.3C176,134.9,169.5,146,161,155.3z
			 M151,106.6c0.7-3.4,1-7,1-10.6s-0.4-7.2-1-10.6l31-8.3c1.3,6.1,2,12.4,2,18.9s-0.7,12.8-2,18.9L151,106.6z"/>
	</g>
</g>
<g id="Layer_2">
</g>
</svg>
