<?xml version="1.0" encoding="utf-8"?>
<!-- Generator: Adobe Illustrator 24.0.3, SVG Export Plug-In . SVG Version: 6.00 Build 0)  -->
<svg version="1.1" id="Layer_1" xmlns="http://www.w3.org/2000/svg" xmlns:xlink="http://www.w3.org/1999/xlink" x="0px" y="0px"
	 viewBox="0 0 192 192" style="enable-background:new 0 0 192 192;" xml:space="preserve">
<style type="text/css">
	.st0{fill:#FFFFFF;}
	.st1{fill:url(#SVGID_1_);}
	.st2{fill:url(#SVGID_2_);}
</style>
<g id="Layer_2">
</g>
<g>
	<g>
		<polygon class="st0" points="35,108 156,108 144,38 132,17 119,8 101,5 89,5 73,8 57,22 48,36 43,56 		"/>
	</g>
	<g>
		<linearGradient id="SVGID_1_" gradientUnits="userSpaceOnUse" x1="160.6626" y1="56" x2="31.3374" y2="56">
			<stop  offset="0" style="stop-color:#DC630F"/>
			<stop  offset="1" style="stop-color:#7438C5"/>
		</linearGradient>
		<path class="st1" d="M96,112c2.5,0,5-0.2,7.4-0.5h57.3L152,55c-0.5-30.5-25.4-55-56-55C65.4,0,40.5,24.6,40,55l-8.7,56.5h57.3
			C91,111.8,93.5,112,96,112z M151.3,103.5h-25.7c9.6-6,17.3-14.8,21.8-25.3L151.3,103.5z M101.1,8.3c22.7,2.4,40.8,20.8,42.7,43.7
			C120.1,51.6,101,33.6,101,11.5C101,10.4,101.1,9.3,101.1,8.3z M91.8,8.2c0.1,1.1,0.2,2.2,0.2,3.3C92,33.8,72.5,52,48.5,52
			c-0.1,0-0.2,0-0.3,0C50.1,28.8,68.6,10.2,91.8,8.2z M48.5,60c21.8,0,40.5-12.9,48-31c7.4,17.9,25.8,30.7,47.3,30.9
			c-1.8,22.3-19,40.4-40.9,43.5H89.1C67.2,100.3,50,82.3,48.2,60C48.3,60,48.4,60,48.5,60z M40.7,103.5l3.9-25.3
			c4.5,10.5,12.2,19.3,21.8,25.3H40.7z"/>
		<linearGradient id="SVGID_2_" gradientUnits="userSpaceOnUse" x1="192" y1="154" x2="9.094947e-13" y2="154">
			<stop  offset="0" style="stop-color:#DC630F"/>
			<stop  offset="1" style="stop-color:#7438C5"/>
		</linearGradient>
		<path class="st2" d="M191.5,186.1c-9.1-17.2-22.1-30.7-38.5-40.1c-5.4-3-11.1-5.6-17-7.7v-18.7c0-1.3-0.7-2.5-1.9-3.2
			c-1.2-0.7-2.7-0.7-4-0.2L96,131.9l-34.1-15.5c-1.3-0.6-2.8-0.5-4,0.2c-1.2,0.7-1.9,1.9-1.9,3.2v18.7c-5.9,2.1-11.6,4.6-17,7.7
			c-16.5,9.3-29.5,22.8-38.6,40.1c-1,2-0.3,4.4,1.7,5.4c2,1,4.4,0.3,5.4-1.7c10.8-20.5,27.4-35.1,48.5-43v5.4c0,1.3,0.7,2.5,1.9,3.2
			c0.7,0.4,1.4,0.6,2.1,0.6c0.6,0,1.2-0.1,1.8-0.4l9.3-4.2l21.3,38.5c0.7,1.3,2,2.1,3.5,2.1c1.5,0,2.8-0.8,3.5-2.1l21.3-38.5
			l9.3,4.2c0.6,0.3,1.2,0.4,1.8,0.4c0.7,0,1.5-0.2,2.1-0.6c1.2-0.7,1.9-1.9,1.9-3.2v-5.4c21,7.9,37.7,22.5,48.5,43
			c0.7,1.4,2.1,2.1,3.5,2.1c0.6,0,1.3-0.1,1.9-0.5C191.8,190.5,192.6,188.1,191.5,186.1z M96,179.7l-17.5-31.6l17.5-8l17.5,8
			L96,179.7z"/>
	</g>
</g>
</svg>
