<?xml version="1.0" encoding="utf-8"?>
<!-- Generator: Adobe Illustrator 24.0.3, SVG Export Plug-In . SVG Version: 6.00 Build 0)  -->
<svg version="1.1" id="Layer_1" xmlns="http://www.w3.org/2000/svg" xmlns:xlink="http://www.w3.org/1999/xlink" x="0px" y="0px"
	 viewBox="0 0 192 192" style="enable-background:new 0 0 192 192;" xml:space="preserve">
<style type="text/css">
	.st0{fill:#44168E;}
	.st1{fill:#7438C5;}
</style>
<g>
	<path class="st0" d="M118.8,80.6L96,60L73.2,80.6c-6.5,5.9-7,15.9-1,22.3c5.2,5.6,13.4,6.6,19.8,3V116h8v-10.1
		c2.5,1.4,5.2,2.1,8,2.1c4.3,0,8.6-1.7,11.8-5.1C125.8,96.5,125.3,86.5,118.8,80.6z"/>
	<path class="st1" d="M190,50.2c-1.8-2.7-4.5-4.5-7.7-5.1l-2.5-0.5l0.4-1.9c0.6-3.1,0-6.3-1.8-9c-1.8-2.7-4.5-4.5-7.7-5.1L156,25.7
		V12c0-6.6-5.4-12-12-12H48c-6.6,0-12,5.4-12,12v13.7l-14.7,2.9c-3.2,0.6-5.9,2.4-7.7,5.1c-1.8,2.7-2.4,5.9-1.8,9l0.4,1.9l-2.5,0.5
		c-3.2,0.6-5.9,2.4-7.7,5.1c-1.8,2.7-2.4,5.9-1.8,9l24.6,123.2c1.1,5.6,6.1,9.6,11.8,9.6c0.8,0,1.6-0.1,2.3-0.2l57-11.3l57,11.3
		c0.8,0.2,1.6,0.2,2.3,0.2c5.7,0,10.6-4.1,11.8-9.6l24.6-123.2C192.4,56,191.8,52.8,190,50.2z M156,33.8l13.2,2.6
		c2.2,0.4,3.6,2.5,3.1,4.7L156,122.8V33.8z M22.8,36.5L36,33.8v88.9L19.7,41.1C19.2,39,20.6,36.9,22.8,36.5z M37.4,183.9
		c-0.3,0.1-0.5,0.1-0.8,0.1c-1.9,0-3.5-1.3-3.9-3.2L8.1,57.6c-0.4-2.2,1-4.2,3.1-4.7l2.5-0.5L36,163.5v0.5c0,6.6,5.4,12,12,12h28.7
		c0.1,0,0.1,0.1,0.2,0.1L37.4,183.9z M79.5,168h-8.6H48c-2.2,0-4-1.8-4-4V12c0-0.8,0.3-1.6,0.7-2.2C45,9.3,45.3,9,45.8,8.7
		C46.4,8.3,47.2,8,48,8h96c0.8,0,1.6,0.3,2.2,0.7c0.4,0.3,0.8,0.7,1.1,1.1c0.4,0.6,0.7,1.4,0.7,2.2v12.1v8.2v130.5v1.2
		c0,2.2-1.8,4-4,4h-39.6H79.5z M183.9,57.6l-24.6,123.2c-0.4,1.9-2,3.2-3.9,3.2c-0.3,0-0.5,0-0.8-0.1l-39.4-7.8
		c0.1,0,0.1-0.1,0.2-0.1H144c6.6,0,12-5.4,12-12v-0.5l22.2-111.1l2.5,0.5C182.9,53.3,184.4,55.4,183.9,57.6z"/>
</g>
</svg>
