<?xml version="1.0" encoding="utf-8"?>
<!-- Generator: Adobe Illustrator 24.0.3, SVG Export Plug-In . SVG Version: 6.00 Build 0)  -->
<svg version="1.1" id="Layer_1" xmlns="http://www.w3.org/2000/svg" xmlns:xlink="http://www.w3.org/1999/xlink" x="0px" y="0px"
	 viewBox="0 0 192 192" style="enable-background:new 0 0 192 192;" xml:space="preserve">
<style type="text/css">
	.st0{display:none;}
	.st1{display:inline;fill:#7438C5;}
	.st2{display:inline;fill:#DC630F;}
	.st3{fill:#FFFFFF;}
	.st4{fill:#DC630F;}
	.st5{fill:#C55508;}
	.st6{fill:#591FA7;}
</style>
<g id="Layer_2" class="st0">
</g>
<g class="st0">
	<path class="st1" d="M219.6,148.1c-6.2-2.4-13-3.7-20-3.7c-7,0-13.8,1.3-20,3.7c-2.8,1.1-5.5,2.4-8,3.8c-16.7,9.7-28,27.8-28,48.5
		s11.3,38.8,28,48.5c2.5,1.5,5.2,2.8,8,3.8c6.2,2.4,13,3.7,20,3.7c7,0,13.8-1.3,20-3.7c21-8.1,36-28.5,36-52.3
		C255.6,176.6,240.6,156.2,219.6,148.1z M219.6,244c-6.1,2.8-12.9,4.4-20,4.4c-7.1,0-13.9-1.6-20-4.4c-2.8-1.3-5.5-2.9-8-4.7
		c-12.1-8.7-20-22.9-20-39s7.9-30.3,20-39c2.5-1.8,5.2-3.4,8-4.7c6.1-2.8,12.9-4.4,20-4.4c7.1,0,13.9,1.6,20,4.4
		c16.5,7.6,28,24.3,28,43.6S236.1,236.5,219.6,244z"/>
	<path class="st1" d="M199.6,104.4c-53,0-96,43-96,96s43,96,96,96s96-43,96-96S252.6,104.4,199.6,104.4z M279.8,164.2
		c0,0,0,0.1,0,0.1c0.3,0.6,0.6,1.3,0.8,1.9c0,0,0,0.1,0,0.1c1.2,2.8,2.2,5.7,3.1,8.6l-10.7,6.2c-1.7-6.5-4.3-12.8-7.7-18.7
		c-3.4-5.9-7.5-11.2-12.3-16l10.7-6.2C270.3,147.3,275.8,155.3,279.8,164.2z M179.6,114.7c1.3-0.3,2.6-0.6,3.9-0.8
		c0.2,0,0.4-0.1,0.6-0.1c0.5-0.1,0.9-0.2,1.4-0.2c0.3-0.1,0.7-0.1,1-0.2c0.4-0.1,0.8-0.1,1.2-0.2c0.4-0.1,0.8-0.1,1.2-0.2
		c0.4,0,0.7-0.1,1.1-0.1c0.4,0,0.9-0.1,1.3-0.1c0.3,0,0.7-0.1,1-0.1c0.5,0,0.9-0.1,1.4-0.1c0.3,0,0.6,0,1-0.1c0.5,0,1.1,0,1.6-0.1
		c0.3,0,0.5,0,0.8,0c0.8,0,1.6,0,2.4,0c0.8,0,1.6,0,2.4,0c0.3,0,0.5,0,0.8,0c0.5,0,1.1,0,1.6,0.1c0.3,0,0.6,0,1,0.1
		c0.5,0,0.9,0.1,1.4,0.1c0.3,0,0.7,0.1,1,0.1c0.4,0,0.9,0.1,1.3,0.1c0.4,0,0.7,0.1,1.1,0.1c0.4,0,0.8,0.1,1.2,0.2
		c0.4,0.1,0.8,0.1,1.2,0.2c0.3,0.1,0.7,0.1,1,0.2c0.5,0.1,0.9,0.1,1.4,0.2c0.2,0,0.4,0.1,0.6,0.1c1.3,0.2,2.6,0.5,3.9,0.8v12.4
		c-6.5-1.8-13.2-2.7-20-2.7c-6.8,0-13.5,0.9-20,2.7V114.7z M118.5,166.3C118.5,166.2,118.5,166.2,118.5,166.3c0.3-0.7,0.6-1.3,0.9-2
		c0,0,0-0.1,0-0.1c4-8.8,9.5-16.9,16-23.9l10.7,6.2c-4.8,4.7-8.9,10.1-12.3,16c-3.4,5.9-6,12.1-7.7,18.7l-10.7-6.2
		C116.3,171.9,117.3,169.1,118.5,166.3z M119.4,236.6c0,0,0-0.1,0-0.1c-0.3-0.6-0.6-1.3-0.8-1.9c0,0,0-0.1,0-0.1
		c-1.2-2.8-2.2-5.7-3.1-8.6l10.7-6.2c1.7,6.5,4.3,12.8,7.7,18.7c3.4,5.9,7.5,11.2,12.3,16l-10.7,6.2
		C128.9,253.6,123.4,245.5,119.4,236.6z M219.6,286.1c-1.3,0.3-2.6,0.6-3.9,0.8c-0.2,0-0.4,0.1-0.7,0.1c-0.4,0.1-0.9,0.2-1.3,0.2
		c-0.3,0.1-0.7,0.1-1,0.2c-0.4,0.1-0.8,0.1-1.2,0.2c-0.4,0.1-0.8,0.1-1.2,0.2c-0.4,0-0.7,0.1-1.1,0.1c-0.4,0-0.9,0.1-1.3,0.1
		c-0.3,0-0.7,0.1-1,0.1c-0.5,0-0.9,0.1-1.4,0.1c-0.3,0-0.6,0-1,0.1c-0.5,0-1.1,0-1.6,0.1c-0.3,0-0.5,0-0.8,0c-0.8,0-1.6,0-2.4,0
		c-0.8,0-1.6,0-2.4,0c-0.3,0-0.5,0-0.8,0c-0.5,0-1.1,0-1.6-0.1c-0.3,0-0.6,0-1-0.1c-0.5,0-0.9-0.1-1.4-0.1c-0.3,0-0.7-0.1-1-0.1
		c-0.4,0-0.9-0.1-1.3-0.1c-0.4,0-0.7-0.1-1.1-0.1c-0.4,0-0.8-0.1-1.2-0.2c-0.4-0.1-0.8-0.1-1.2-0.2c-0.3-0.1-0.7-0.1-1-0.2
		c-0.4-0.1-0.9-0.1-1.3-0.2c-0.2,0-0.4-0.1-0.7-0.1c-1.3-0.2-2.6-0.5-3.9-0.8v-12.4c6.5,1.8,13.2,2.7,20,2.7c6.8,0,13.5-0.9,20-2.7
		V286.1z M280.7,234.6C280.7,234.6,280.7,234.6,280.7,234.6c-0.3,0.7-0.6,1.3-0.9,2c0,0,0,0.1,0,0.1c-4,8.8-9.5,16.9-16,23.9
		l-10.7-6.2c4.8-4.7,8.9-10.1,12.3-16c3.4-5.9,6-12.1,7.7-18.7l10.7,6.2C282.9,228.9,281.9,231.8,280.7,234.6z M272.4,210.1
		c-0.6-0.4-1.3-0.5-2-0.5c-1.8,0-3.6,1.3-4,3.3c-1.4,7.4-4,14.7-8,21.5c-4,6.9-9,12.8-14.7,17.7c-2.1,1.8-1.8,5.1,0.6,6.5l13.4,7.7
		c-8.7,7.7-19,13.7-30.2,17.5v-15.6c0-2.3-1.9-4-4-4c-0.4,0-0.9,0.1-1.4,0.2c-7.1,2.5-14.7,3.9-22.6,3.9c-7.9,0-15.5-1.4-22.6-3.9
		c-0.5-0.2-0.9-0.2-1.4-0.2c-2.1,0-4,1.7-4,4v15.6c-11.3-3.8-21.5-9.8-30.2-17.5l13.4-7.7c2.4-1.4,2.7-4.7,0.6-6.5
		c-5.7-4.9-10.7-10.8-14.7-17.7c-4-6.9-6.6-14.2-8-21.5c-0.4-2-2.1-3.3-4-3.3c-0.7,0-1.3,0.2-2,0.5l-13.5,7.8
		c-1.1-5.6-1.7-11.5-1.7-17.5c0-6,0.6-11.8,1.7-17.5l13.5,7.8c0.6,0.4,1.3,0.5,2,0.5c1.8,0,3.6-1.3,4-3.3c1.4-7.4,4-14.7,8-21.5
		c4-6.9,9-12.8,14.7-17.7c2.1-1.8,1.8-5.1-0.6-6.5l-13.4-7.7c8.7-7.7,19-13.7,30.2-17.5v15.6c0,2.3,1.9,4,4,4c0.5,0,0.9-0.1,1.4-0.2
		c7.1-2.5,14.7-3.9,22.6-3.9c7.9,0,15.5,1.4,22.6,3.9c0.5,0.2,0.9,0.2,1.4,0.2c2.1,0,4-1.7,4-4V117c11.3,3.8,21.5,9.8,30.2,17.5
		l-13.4,7.7c-2.4,1.4-2.7,4.7-0.6,6.5c5.7,4.9,10.7,10.8,14.7,17.7c4,6.9,6.6,14.2,8,21.5c0.4,2,2.1,3.3,4,3.3c0.7,0,1.3-0.2,2-0.5
		l13.5-7.8c1.1,5.6,1.7,11.5,1.7,17.5c0,6-0.6,11.8-1.7,17.5L272.4,210.1z"/>
	<path class="st2" d="M222.4,193l-22.8-20.6L176.8,193c-6.5,5.9-7,15.9-1,22.3c5.2,5.6,13.4,6.6,19.8,3v10.1h8v-10.1
		c2.5,1.4,5.2,2.1,8,2.1c4.3,0,8.6-1.7,11.8-5.1C229.4,208.9,228.9,198.9,222.4,193z"/>
</g>
<g>
	<g>
		<path class="st3" d="M116,52.4c-6.1-2.8-12.9-4.4-20-4.4c-7.1,0-13.9,1.6-20,4.4c-2.8,1.3-5.5,2.9-8,4.7c-12.1,8.7-20,22.9-20,39
			c0,16.1,7.9,30.3,20,39c2.5,1.8,5.2,3.4,8,4.7c6.1,2.8,12.9,4.4,20,4.4c7.1,0,13.9-1.6,20-4.4c16.5-7.6,28-24.3,28-43.6
			C144,76.6,132.5,60,116,52.4z"/>
		<g>
			<path class="st4" d="M161.8,134c-3.4,5.9-7.5,11.2-12.3,16l10.7,6.2c6.6-7,12-15.1,16-23.9c0,0,0-0.1,0-0.1
				c0.3-0.6,0.6-1.3,0.8-1.9c0,0,0-0.1,0-0.1c1.2-2.8,2.2-5.7,3.1-8.6l-10.7-6.2C167.8,121.9,165.2,128.1,161.8,134z"/>
			<path class="st4" d="M161.8,58c3.4,5.9,6,12.1,7.7,18.7l10.7-6.2c-0.9-2.9-1.9-5.8-3.1-8.6c0,0,0-0.1,0-0.1
				c-0.3-0.6-0.5-1.3-0.8-1.9c0,0,0-0.1,0-0.1c-4-8.8-9.5-16.9-16-23.9L149.5,42C154.3,46.8,158.4,52.1,161.8,58z"/>
			<path class="st4" d="M76,169.3v12.4c1.3,0.3,2.6,0.6,3.9,0.8c0.2,0,0.4,0.1,0.7,0.1c0.4,0.1,0.9,0.2,1.3,0.2
				c0.3,0.1,0.7,0.1,1,0.2c0.4,0.1,0.8,0.1,1.2,0.2c0.4,0.1,0.8,0.1,1.2,0.2c0.4,0,0.7,0.1,1.1,0.1c0.4,0,0.9,0.1,1.3,0.1
				c0.3,0,0.7,0.1,1,0.1c0.5,0,0.9,0.1,1.4,0.1c0.3,0,0.6,0,1,0.1c0.5,0,1.1,0,1.6,0.1c0.3,0,0.5,0,0.8,0c0.8,0,1.6,0,2.4,0
				c0.8,0,1.6,0,2.4,0c0.3,0,0.5,0,0.8,0c0.5,0,1.1,0,1.6-0.1c0.3,0,0.6,0,1-0.1c0.5,0,0.9-0.1,1.4-0.1c0.3,0,0.7-0.1,1-0.1
				c0.4,0,0.9-0.1,1.3-0.1c0.4,0,0.7-0.1,1.1-0.1c0.4,0,0.8-0.1,1.2-0.2c0.4-0.1,0.8-0.1,1.2-0.2c0.3-0.1,0.7-0.1,1-0.2
				c0.4-0.1,0.9-0.1,1.3-0.2c0.2,0,0.4-0.1,0.7-0.1c1.3-0.2,2.6-0.5,3.9-0.8v-12.4c-6.5,1.8-13.2,2.7-20,2.7
				C89.2,172,82.5,171.1,76,169.3z"/>
			<path class="st4" d="M30.2,58c3.4-5.9,7.5-11.2,12.3-16l-10.7-6.2c-6.6,7-12,15.1-16,23.9c0,0,0,0.1,0,0.1
				c-0.3,0.6-0.6,1.3-0.8,1.9c0,0,0,0.1,0,0.1c-1.2,2.8-2.2,5.7-3.1,8.6l10.7,6.2C24.2,70.1,26.8,63.9,30.2,58z"/>
			<path class="st4" d="M30.2,134c-3.4-5.9-6-12.1-7.7-18.7l-10.7,6.2c0.9,2.9,1.9,5.8,3.1,8.6c0,0,0,0.1,0,0.1
				c0.3,0.6,0.5,1.3,0.8,1.9c0,0,0,0.1,0,0.1c4,8.8,9.5,16.9,16,23.9l10.7-6.2C37.7,145.2,33.6,139.9,30.2,134z"/>
			<path class="st4" d="M116,22.7V10.3c-1.3-0.3-2.6-0.6-3.9-0.8c-0.2,0-0.4-0.1-0.6-0.1c-0.5-0.1-0.9-0.2-1.4-0.2
				c-0.3-0.1-0.7-0.1-1-0.2c-0.4-0.1-0.8-0.1-1.2-0.2c-0.4-0.1-0.8-0.1-1.2-0.2c-0.4,0-0.7-0.1-1.1-0.1c-0.4,0-0.9-0.1-1.3-0.1
				c-0.3,0-0.7-0.1-1-0.1c-0.5,0-0.9-0.1-1.4-0.1c-0.3,0-0.6,0-1-0.1c-0.5,0-1.1,0-1.6-0.1c-0.3,0-0.5,0-0.8,0c-0.8,0-1.6,0-2.4,0
				c-0.8,0-1.6,0-2.4,0c-0.3,0-0.5,0-0.8,0c-0.5,0-1.1,0-1.6,0.1c-0.3,0-0.6,0-1,0.1c-0.5,0-0.9,0.1-1.4,0.1c-0.3,0-0.7,0.1-1,0.1
				c-0.4,0-0.9,0.1-1.3,0.1c-0.4,0-0.7,0.1-1.1,0.1c-0.4,0-0.8,0.1-1.2,0.2c-0.4,0.1-0.8,0.1-1.2,0.2c-0.3,0.1-0.7,0.1-1,0.2
				c-0.5,0.1-0.9,0.1-1.4,0.2c-0.2,0-0.4,0.1-0.6,0.1c-1.3,0.2-2.6,0.5-3.9,0.8v12.4c6.5-1.8,13.2-2.7,20-2.7
				C102.8,20,109.5,20.9,116,22.7z"/>
		</g>
		<path class="st3" d="M182.3,78.5l-13.5,7.8c-0.6,0.4-1.3,0.5-2,0.5c-1.8,0-3.6-1.3-4-3.3c-1.4-7.4-4-14.7-8-21.5
			c-4-6.9-9-12.8-14.7-17.7c-2.1-1.8-1.8-5.1,0.6-6.5l13.4-7.7c-8.7-7.7-19-13.7-30.2-17.5v15.6c0,2.3-1.9,4-4,4
			c-0.4,0-0.9-0.1-1.4-0.2C111.5,29.4,103.9,28,96,28c-7.9,0-15.5,1.4-22.6,3.9c-0.5,0.2-0.9,0.2-1.4,0.2c-2.1,0-4-1.7-4-4V12.6
			c-11.3,3.8-21.5,9.8-30.2,17.5l13.4,7.7c2.4,1.4,2.7,4.7,0.6,6.5C46.1,49.2,41.1,55.1,37.1,62c-4,6.9-6.6,14.2-8,21.5
			c-0.4,2-2.1,3.3-4,3.3c-0.7,0-1.3-0.2-2-0.5L9.7,78.5C8.6,84.2,8,90,8,96s0.6,11.8,1.7,17.5l13.5-7.8c0.6-0.4,1.3-0.5,2-0.5
			c1.8,0,3.6,1.3,4,3.3c1.4,7.4,4,14.7,8,21.5c4,6.9,9,12.8,14.7,17.7c2.1,1.8,1.8,5.1-0.6,6.5l-13.4,7.7c8.7,7.7,19,13.7,30.2,17.5
			v-15.6c0-2.3,1.9-4,4-4c0.4,0,0.9,0.1,1.4,0.2c7.1,2.5,14.7,3.9,22.6,3.9c7.9,0,15.5-1.4,22.6-3.9c0.5-0.2,0.9-0.2,1.4-0.2
			c2.1,0,4,1.7,4,4v15.6c11.3-3.8,21.5-9.8,30.2-17.5l-13.4-7.7c-2.4-1.4-2.7-4.7-0.6-6.5c5.7-4.9,10.7-10.8,14.7-17.7
			c4-6.9,6.6-14.2,8-21.5c0.4-2,2.1-3.3,4-3.3c0.7,0,1.3,0.2,2,0.5l13.5,7.8c1.1-5.6,1.7-11.5,1.7-17.5
			C184,90,183.4,84.2,182.3,78.5z M116,148.3c-6.2,2.4-13,3.7-20,3.7c-7,0-13.8-1.3-20-3.7c-2.8-1.1-5.5-2.4-8-3.8
			c-16.7-9.7-28-27.8-28-48.5c0-20.7,11.3-38.8,28-48.5c2.5-1.5,5.2-2.8,8-3.8c6.2-2.4,13-3.7,20-3.7c7,0,13.8,1.3,20,3.7
			c21,8.1,36,28.5,36,52.3C152,119.8,137,140.2,116,148.3z"/>
		<path class="st5" d="M116,43.7c-6.2-2.4-13-3.7-20-3.7c-7,0-13.8,1.3-20,3.7c-2.8,1.1-5.5,2.4-8,3.8C51.3,57.2,40,75.3,40,96
			c0,20.7,11.3,38.8,28,48.5c2.5,1.5,5.2,2.8,8,3.8c6.2,2.4,13,3.7,20,3.7c7,0,13.8-1.3,20-3.7c21-8.1,36-28.5,36-52.3
			C152,72.2,137,51.8,116,43.7z M116,139.6c-6.1,2.8-12.9,4.4-20,4.4c-7.1,0-13.9-1.6-20-4.4c-2.8-1.3-5.5-2.9-8-4.7
			c-12.1-8.7-20-22.9-20-39c0-16.1,7.9-30.3,20-39c2.5-1.8,5.2-3.4,8-4.7c6.1-2.8,12.9-4.4,20-4.4c7.1,0,13.9,1.6,20,4.4
			c16.5,7.6,28,24.3,28,43.6C144,115.4,132.5,132,116,139.6z"/>
		<path class="st5" d="M96,0C43,0,0,43,0,96c0,53,43,96,96,96c53,0,96-43,96-96C192,43,149,0,96,0z M176.2,59.9
			c0.3,0.6,0.6,1.3,0.8,1.9c0,0,0,0.1,0,0.1c1.2,2.8,2.2,5.7,3.1,8.6l-10.7,6.2c-1.7-6.5-4.3-12.8-7.7-18.7
			c-3.4-5.9-7.5-11.2-12.3-16l10.7-6.2c6.6,7,12,15.1,16,23.9C176.2,59.8,176.2,59.8,176.2,59.9z M98.4,8c0.3,0,0.5,0,0.8,0
			c0.5,0,1.1,0,1.6,0.1c0.3,0,0.6,0,1,0.1c0.5,0,0.9,0.1,1.4,0.1c0.3,0,0.7,0.1,1,0.1c0.4,0,0.9,0.1,1.3,0.1c0.4,0,0.7,0.1,1.1,0.1
			c0.4,0,0.8,0.1,1.2,0.2c0.4,0.1,0.8,0.1,1.2,0.2c0.3,0.1,0.7,0.1,1,0.2c0.5,0.1,0.9,0.1,1.4,0.2c0.2,0,0.4,0.1,0.6,0.1
			c1.3,0.2,2.6,0.5,3.9,0.8v12.4c-6.5-1.8-13.2-2.7-20-2.7c-6.8,0-13.5,0.9-20,2.7V10.3c1.3-0.3,2.6-0.6,3.9-0.8
			c0.2,0,0.4-0.1,0.6-0.1c0.5-0.1,0.9-0.2,1.4-0.2c0.3-0.1,0.7-0.1,1-0.2c0.4-0.1,0.8-0.1,1.2-0.2c0.4-0.1,0.8-0.1,1.2-0.2
			c0.4,0,0.7-0.1,1.1-0.1c0.4,0,0.9-0.1,1.3-0.1c0.3,0,0.7-0.1,1-0.1c0.5,0,0.9-0.1,1.4-0.1c0.3,0,0.6,0,1-0.1c0.5,0,1.1,0,1.6-0.1
			c0.3,0,0.5,0,0.8,0c0.8,0,1.6,0,2.4,0C96.8,8,97.6,8,98.4,8z M15.8,59.8c4-8.8,9.5-16.9,16-23.9L42.5,42
			c-4.8,4.7-8.9,10.1-12.3,16c-3.4,5.9-6,12.1-7.7,18.7l-10.7-6.2c0.9-2.9,1.9-5.8,3.1-8.6c0,0,0-0.1,0-0.1c0.3-0.6,0.5-1.3,0.8-1.9
			C15.8,59.8,15.8,59.8,15.8,59.8z M9.7,78.5l13.5,7.8c0.6,0.4,1.3,0.5,2,0.5c1.8,0,3.6-1.3,4-3.3c1.4-7.4,4-14.7,8-21.5
			c4-6.9,9-12.8,14.7-17.7c2.1-1.8,1.8-5.1-0.6-6.5l-13.4-7.7c8.7-7.7,19-13.7,30.2-17.5v15.6c0,2.3,1.9,4,4,4
			c0.5,0,0.9-0.1,1.4-0.2C80.5,29.4,88.1,28,96,28c7.9,0,15.5,1.4,22.6,3.9c0.5,0.2,0.9,0.2,1.4,0.2c2.1,0,4-1.7,4-4V12.6
			c11.3,3.8,21.5,9.8,30.2,17.5l-13.4,7.7c-2.4,1.4-2.7,4.7-0.6,6.5c5.7,4.9,10.7,10.8,14.7,17.7c4,6.9,6.6,14.2,8,21.5
			c0.4,2,2.1,3.3,4,3.3c0.7,0,1.3-0.2,2-0.5l13.5-7.8C183.4,84.2,184,90,184,96c0,6-0.6,11.8-1.7,17.5l-13.5-7.8
			c-0.6-0.4-1.3-0.5-2-0.5c-1.8,0-3.6,1.3-4,3.3c-1.4,7.4-4,14.7-8,21.5c-4,6.9-9,12.8-14.7,17.7c-2.1,1.8-1.8,5.1,0.6,6.5l13.4,7.7
			c-8.7,7.7-19,13.7-30.2,17.5v-15.6c0-2.3-1.9-4-4-4c-0.4,0-0.9,0.1-1.4,0.2c-7.1,2.5-14.7,3.9-22.6,3.9c-7.9,0-15.5-1.4-22.6-3.9
			c-0.5-0.2-0.9-0.2-1.4-0.2c-2.1,0-4,1.7-4,4v15.6c-11.3-3.8-21.5-9.8-30.2-17.5l13.4-7.7c2.4-1.4,2.7-4.7,0.6-6.5
			c-5.7-4.9-10.7-10.8-14.7-17.7c-4-6.9-6.6-14.2-8-21.5c-0.4-2-2.1-3.3-4-3.3c-0.7,0-1.3,0.2-2,0.5l-13.5,7.8C8.6,107.8,8,102,8,96
			S8.6,84.2,9.7,78.5z M15.8,132.1c-0.3-0.6-0.6-1.3-0.8-1.9c0,0,0-0.1,0-0.1c-1.2-2.8-2.2-5.7-3.1-8.6l10.7-6.2
			c1.7,6.5,4.3,12.8,7.7,18.7c3.4,5.9,7.5,11.2,12.3,16l-10.7,6.2c-6.6-7-12-15.1-16-23.9C15.8,132.2,15.8,132.2,15.8,132.1z
			 M92.8,183.9c-0.5,0-1.1,0-1.6-0.1c-0.3,0-0.6,0-1-0.1c-0.5,0-0.9-0.1-1.4-0.1c-0.3,0-0.7-0.1-1-0.1c-0.4,0-0.9-0.1-1.3-0.1
			c-0.4,0-0.7-0.1-1.1-0.1c-0.4,0-0.8-0.1-1.2-0.2c-0.4-0.1-0.8-0.1-1.2-0.2c-0.3-0.1-0.7-0.1-1-0.2c-0.4-0.1-0.9-0.1-1.3-0.2
			c-0.2,0-0.4-0.1-0.7-0.1c-1.3-0.2-2.6-0.5-3.9-0.8v-12.4c6.5,1.8,13.2,2.7,20,2.7c6.8,0,13.5-0.9,20-2.7v12.4
			c-1.3,0.3-2.6,0.6-3.9,0.8c-0.2,0-0.4,0.1-0.7,0.1c-0.4,0.1-0.9,0.2-1.3,0.2c-0.3,0.1-0.7,0.1-1,0.2c-0.4,0.1-0.8,0.1-1.2,0.2
			c-0.4,0.1-0.8,0.1-1.2,0.2c-0.4,0-0.7,0.1-1.1,0.1c-0.4,0-0.9,0.1-1.3,0.1c-0.3,0-0.7,0.1-1,0.1c-0.5,0-0.9,0.1-1.4,0.1
			c-0.3,0-0.6,0-1,0.1c-0.5,0-1.1,0-1.6,0.1c-0.3,0-0.5,0-0.8,0c-0.8,0-1.6,0-2.4,0c-0.8,0-1.6,0-2.4,0
			C93.3,184,93.1,183.9,92.8,183.9z M149.5,150c4.8-4.7,8.9-10.1,12.3-16c3.4-5.9,6-12.1,7.7-18.7l10.7,6.2
			c-0.9,2.9-1.9,5.8-3.1,8.6c0,0,0,0.1,0,0.1c-0.3,0.6-0.5,1.3-0.8,1.9c0,0,0,0.1,0,0.1c-4,8.8-9.5,16.9-16,23.9L149.5,150z"/>
	</g>
	<path class="st6" d="M112,84c0-8.8-7.2-16-16-16c-8.8,0-16,7.2-16,16c0,4.8,2.1,9.1,5.4,12c-3.3,2.9-5.4,7.2-5.4,12
		c0,8.8,7.2,16,16,16c8.8,0,16-7.2,16-16c0-4.8-2.1-9.1-5.4-12C109.9,93.1,112,88.8,112,84z M96,116c-4.4,0-8-3.6-8-8s3.6-8,8-8
		c4.4,0,8,3.6,8,8S100.4,116,96,116z M96,92c-4.4,0-8-3.6-8-8s3.6-8,8-8c4.4,0,8,3.6,8,8S100.4,92,96,92z"/>
</g>
</svg>
